{"accessors" : [{"bufferView" : 0, "byteOffset" : 0, "componentType" : 5123, "count" : 36, "type" : "SCALAR", "max" : [23], "min" : [0]}, {"bufferView" : 1, "byteOffset" : 0, "componentType" : 5126, "count" : 24, "type" : "VEC3", "max" : [1, -0.94893479347229, 1], "min" : [-1, -1, -1], "name" : "POSITION"}, {"bufferView" : 1, "byteOffset" : 12, "componentType" : 5126, "count" : 24, "type" : "VEC3", "max" : [1.0000044107437134, 1.0000044107437134, 1.0000044107437134], "min" : [-1.0000044107437134, -1.0000044107437134, -1.0000044107437134], "name" : "NORMAL"}, {"bufferView" : 1, "byteOffset" : 24, "componentType" : 5126, "count" : 24, "type" : "VEC2", "max" : [0.875, 1], "min" : [0.125, 0], "name" : "TEXCOORD_0"}, {"bufferView" : 0, "byteOffset" : 72, "componentType" : 5123, "count" : 1047, "type" : "SCALAR", "max" : [456], "min" : [0]}, {"bufferView" : 2, "byteOffset" : 0, "componentType" : 5126, "count" : 457, "type" : "VEC3", "max" : [2.1540000438690186, 0, 0.009000000543892384], "min" : [0.04800000041723251, 0, -0.6910000443458557], "name" : "POSITION"}, {"bufferView" : 2, "byteOffset" : 12, "componentType" : 5126, "count" : 457, "type" : "VEC3", "max" : [0, 1.0000044107437134, -0], "min" : [0, 1.0000042915344238, -0], "name" : "NORMAL"}, {"bufferView" : 2, "byteOffset" : 24, "componentType" : 5126, "count" : 457, "type" : "VEC2", "max" : [1, 1], "min" : [0, 1], "name" : "TEXCOORD_0"}], "asset" : {"generator" : "Aspose.3D 21.6", "version" : "2.0"}, "buffers" : [{"uri" : "data:application/octet-stream;base64,", "byteLength" : 36836}], "bufferViews" : [{"buffer" : 0, "byteOffset" : 0, "byteLength" : 2168, "target" : 34963}, {"buffer" : 0, "byteOffset" : 2172, "byteLength" : 1152, "byteStride" : 32, "target" : 34962}, {"buffer" : 0, "byteOffset" : 3328, "byteLength" : 33504, "byteStride" : 32, "target" : 34962}], "materials" : [{"name" : "Color", "pbrMetallicRoughness" : {"baseColorFactor" : [0.8000000715255737, 0.06766708940267563, 0.05726125091314316, 1], "metallicFactor" : 0, "roughnessFactor" : 0.5}, "emissiveFactor" : [0, 0, 0], "alphaMode" : "OPAQUE", "doubleSided" : true}], "meshes" : [{"primitives" : [{"attributes" : {"POSITION" : 1, "NORMAL" : 2, "TEXCOORD_0" : 3}, "indices" : 0, "material" : 0, "mode" : 4}]}, {"primitives" : [{"attributes" : {"POSITION" : 5, "NORMAL" : 6, "TEXCOORD_0" : 7}, "indices" : 4, "mode" : 4}]}], "nodes" : [{"matrix" : [0.006909917294017021, 0, 0.999976143454262, 0, 0, 1, 0, 0, -0.999976143454262, 0, 0.006909917294017021, 0, 0, 3.074445962905884, 0, 1], "mesh" : 0, "name" : "Cube"}, {"matrix" : [1, 0, 0, 0, 0, -1.3435885648505064E-07, 1.0000001343588565, 0, 0, -1.0000001343588565, -1.3435885648505064E-07, 0, -1.101291298866272, 0.7633799910545349, 2.110436201095581, 1], "mesh" : 1, "name" : "Text"}], "scene" : 0, "scenes" : [{"nodes" : [0, 1]}]}