{
    "asset" : {
        "generator" : "Khronos glTF Blender I/O v1.6.16",
        "version" : "2.0"
    },
    "scene" : 0,
    "scenes" : [
        {
            "name" : "Scene",
            "nodes" : [
                0,
                1
            ]
        }
    ],
    "nodes" : [
        {
            "mesh" : 0,
            "name" : "Text",
            "rotation" : [
                0.7071068286895752,
                0,
                0,
                0.7071068286895752
            ],
            "scale" : [
                0.04827690124511719,
                0.04827690124511719,
                0.04827690124511719
            ],
            "translation" : [
                -0.07329296320676804,
                0.0013501103967428207,
                0.09247016906738281
            ]
        },
        {
            "mesh" : 1,
            "name" : "Cube",
            "scale" : [
                2.18271541595459,
                2.18271541595459,
                2.18271541595459
            ],
            "translation" : [
                0.0033326037228107452,
                0.04285610839724541,
                -0.002360820770263672
            ]
        }
    ],
    "materials" : [
        {
            "doubleSided" : true,
            "name" : "Material",
            "pbrMetallicRoughness" : {
                "baseColorFactor" : [
                    0.0011885184794664383,
                    0.007073566783219576,
                    0.01338515430688858,
                    1
                ],
                "metallicFactor" : 0,
                "roughnessFactor" : 0.4000000059604645
            }
        },
        {
            "doubleSided" : true,
            "name" : "Color",
            "pbrMetallicRoughness" : {
                "baseColorFactor" : [
                    0.8000000715255737,
                    0.06766708940267563,
                    0.05726125091314316,
                    1
                ],
                "metallicFactor" : 0,
                "roughnessFactor" : 0.5
            }
        }
    ],
    "meshes" : [
        {
            "name" : "Text",
            "primitives" : [
                {
                    "attributes" : {
                        "POSITION" : 0,
                        "NORMAL" : 1,
                        "TEXCOORD_0" : 2
                    },
                    "indices" : 3,
                    "material" : 0
                }
            ]
        },
        {
            "name" : "Cube",
            "primitives" : [
                {
                    "attributes" : {
                        "POSITION" : 4,
                        "NORMAL" : 5,
                        "TEXCOORD_0" : 6
                    },
                    "indices" : 7,
                    "material" : 1
                }
            ]
        }
    ],
    "accessors" : [
        {
            "bufferView" : 0,
            "componentType" : 5126,
            "count" : 691,
            "max" : [
                3.2120003700256348,
                0,
                0.23000000417232513
            ],
            "min" : [
                0.07000000029802322,
                0,
                -0.6820000410079956
            ],
            "type" : "VEC3"
        },
        {
            "bufferView" : 1,
            "componentType" : 5126,
            "count" : 691,
            "type" : "VEC3"
        },
        {
            "bufferView" : 2,
            "componentType" : 5126,
            "count" : 691,
            "type" : "VEC2"
        },
        {
            "bufferView" : 3,
            "componentType" : 5123,
            "count" : 1560,
            "type" : "SCALAR"
        },
        {
            "bufferView" : 4,
            "componentType" : 5126,
            "count" : 14,
            "max" : [
                0.02561289072036743,
                0.03999999910593033,
                0.024569906294345856
            ],
            "min" : [
                -0.024387110024690628,
                -0.009999999776482582,
                -0.025430094450712204
            ],
            "type" : "VEC3"
        },
        {
            "bufferView" : 5,
            "componentType" : 5126,
            "count" : 14,
            "type" : "VEC3"
        },
        {
            "bufferView" : 6,
            "componentType" : 5126,
            "count" : 14,
            "type" : "VEC2"
        },
        {
            "bufferView" : 7,
            "componentType" : 5123,
            "count" : 18,
            "type" : "SCALAR"
        }
    ],
    "bufferViews" : [
        {
            "buffer" : 0,
            "byteLength" : 8292,
            "byteOffset" : 0
        },
        {
            "buffer" : 0,
            "byteLength" : 8292,
            "byteOffset" : 8292
        },
        {
            "buffer" : 0,
            "byteLength" : 5528,
            "byteOffset" : 16584
        },
        {
            "buffer" : 0,
            "byteLength" : 3120,
            "byteOffset" : 22112
        },
        {
            "buffer" : 0,
            "byteLength" : 168,
            "byteOffset" : 25232
        },
        {
            "buffer" : 0,
            "byteLength" : 168,
            "byteOffset" : 25400
        },
        {
            "buffer" : 0,
            "byteLength" : 112,
            "byteOffset" : 25568
        },
        {
            "buffer" : 0,
            "byteLength" : 36,
            "byteOffset" : 25680
        }
    ],
    "buffers" : [
        {
            "byteLength" : 25716,
            "uri" : "data:application/octet-stream;base64,"
        }
    ]
}
